<svg xmlns="http://www.w3.org/2000/svg" width="244" height="92" fill="none">
  <g fill="#fff" clip-path="url(#a)">
    <path d="m88.95 19.045 2.903-3.239c1.2 1.322 2.366 2.1 3.833 2.1 1.737 0 2.816-1.048 2.816-3.48V.9h4.73v13.735c0 2.49-.719 4.35-1.976 5.608-1.29 1.289-3.175 1.951-5.45 1.951-3.262 0-5.42-1.437-6.855-3.148ZM115.595 12.596c-.268-2.038-1.468-3.417-3.382-3.417-1.914 0-3.113 1.35-3.473 3.417h6.855Zm-11.317 1.35v-.062c0-4.59 3.263-8.367 7.935-8.367 5.359 0 7.815 4.167 7.815 8.728 0 .36-.029.778-.058 1.2h-11.168c.451 2.072 1.885 3.149 3.92 3.149 1.525 0 2.633-.48 3.89-1.649l2.605 2.312c-1.496 1.86-3.651 2.998-6.557 2.998-4.822 0-8.382-3.388-8.382-8.309ZM118.949 5.82h4.614l2.572 9.746 3.026-9.808h3.92l3.056 9.837 2.634-9.775h4.519l-4.999 16.195h-4.102l-3.084-9.87-3.143 9.87h-4.072L118.949 5.82ZM143.86 5.82h4.553v16.075h-4.553V5.82ZM143.741 0h4.792v4.047h-4.792V0ZM149.037 19.766l1.948-2.999c1.736 1.26 3.564 1.918 5.061 1.918 1.314 0 1.914-.48 1.914-1.201v-.058c0-.99-1.555-1.317-3.324-1.86-2.246-.659-4.793-1.71-4.793-4.83v-.062c0-3.268 2.634-5.099 5.868-5.099 2.034 0 4.25.692 5.987 1.86l-1.737 3.148c-1.588-.928-3.175-1.5-4.341-1.5-1.166 0-1.675.481-1.675 1.11v.063c0 .899 1.526 1.321 3.262 1.918 2.246.75 4.85 1.83 4.85 4.767v.062c0 3.57-2.662 5.19-6.135 5.19-2.246 0-4.76-.75-6.885-2.427ZM162.93 0h4.552v8.098c1.046-1.35 2.394-2.58 4.702-2.58 3.444 0 5.449 2.277 5.449 5.968v10.405h-4.552v-8.968c0-2.158-1.017-3.268-2.754-3.268s-2.845 1.11-2.845 3.268v8.968h-4.552V0ZM90.117 37.577v-.058c0-5.969 4.49-10.856 10.928-10.856 3.953 0 6.318 1.321 8.261 3.239l-2.935 3.388c-1.617-1.47-3.263-2.37-5.359-2.37-3.531 0-6.078 2.942-6.078 6.537v.062c0 3.6 2.485 6.598 6.078 6.598 2.394 0 3.862-.96 5.507-2.46l2.936 2.97c-2.154 2.311-4.548 3.748-8.592 3.748-6.169 0-10.75-4.767-10.75-10.798"/>
    <path d="M122.062 40.066v-.058c0-2.369-1.708-4.44-4.222-4.44-2.513 0-4.159 2.01-4.159 4.378v.058c0 2.37 1.708 4.44 4.221 4.44 2.514 0 4.16-2.008 4.16-4.378Zm-12.876 0v-.058c0-4.618 3.713-8.367 8.712-8.367s8.654 3.691 8.654 8.31v.057c0 4.619-3.713 8.367-8.712 8.367-4.998 0-8.654-3.69-8.654-8.309ZM127.45 31.94h4.548v2.278c1.046-1.35 2.427-2.58 4.73-2.58 2.096 0 3.684.927 4.519 2.55 1.406-1.648 3.085-2.55 5.268-2.55 3.382 0 5.421 2.037 5.421 5.906V48.01h-4.553v-8.968c0-2.158-.959-3.268-2.663-3.268-1.703 0-2.753 1.11-2.753 3.268v8.968h-4.553v-8.968c0-2.158-.959-3.268-2.662-3.268-1.704 0-2.754 1.11-2.754 3.268v8.968h-4.548V31.935v.005ZM153.494 31.94h4.553v2.278c1.046-1.35 2.423-2.58 4.73-2.58 2.096 0 3.684.927 4.519 2.55 1.406-1.648 3.085-2.55 5.268-2.55 3.382 0 5.421 2.037 5.421 5.906V48.01h-4.553v-8.968c0-2.158-.959-3.268-2.663-3.268-1.703 0-2.753 1.11-2.753 3.268v8.968h-4.553v-8.968c0-2.158-.959-3.268-2.662-3.268-1.704 0-2.754 1.11-2.754 3.268v8.968h-4.553V31.935v.005ZM179.423 42.345V31.94h4.553v8.967c0 2.158 1.017 3.268 2.754 3.268 1.736 0 2.844-1.11 2.844-3.268V31.94h4.553v16.075h-4.553v-2.278c-1.046 1.35-2.394 2.58-4.701 2.58-3.444 0-5.45-2.278-5.45-5.968M195.797 31.94h4.548v2.278c1.046-1.35 2.394-2.58 4.701-2.58 3.445 0 5.45 2.277 5.45 5.968v10.405h-4.552v-8.968c0-2.158-1.017-3.268-2.754-3.268s-2.845 1.11-2.845 3.268v8.968h-4.548V31.935v.005ZM212.266 31.94h4.552v16.075h-4.552V31.94Zm-.12-5.82h4.792v4.047h-4.792V26.12ZM219.448 43.455v-7.618h-1.915V31.94h1.915v-4.11H224v4.11h3.771v3.897H224v6.868c0 1.048.451 1.562 1.468 1.562.839 0 1.588-.212 2.245-.572v3.657c-.959.572-2.067.932-3.593.932-2.783 0-4.672-1.11-4.672-4.83Z"/>
    <path d="m228.519 51.793 1.526-3.297c.6.36 1.348.63 1.948.63.777 0 1.199-.241 1.587-1.049l-6.289-16.133h4.822l3.651 10.947 3.502-10.947h4.73l-6.169 16.465c-1.228 3.268-2.543 4.498-5.268 4.498-1.646 0-2.874-.418-4.04-1.11M89.608 71.074l2.725-3.268c1.886 1.558 3.862 2.547 6.256 2.547 1.885 0 3.023-.75 3.023-1.98v-.058c0-1.172-.72-1.768-4.222-2.671-4.222-1.081-6.946-2.25-6.946-6.416v-.058c0-3.81 3.055-6.33 7.335-6.33 3.055 0 5.66.962 7.785 2.668l-2.394 3.48c-1.856-1.293-3.684-2.072-5.45-2.072-1.765 0-2.695.808-2.695 1.831v.062c0 1.38.897 1.831 4.52 2.76 4.25 1.11 6.644 2.638 6.644 6.3v.061c0 4.167-3.172 6.507-7.695 6.507-3.175 0-6.376-1.11-8.894-3.359M117.869 64.836c-.268-2.038-1.467-3.421-3.382-3.421-1.914 0-3.113 1.35-3.473 3.421h6.855Zm-11.316 1.35v-.058c0-4.589 3.262-8.367 7.934-8.367 5.359 0 7.815 4.167 7.815 8.728 0 .36-.029.779-.058 1.201h-11.168c.451 2.071 1.885 3.148 3.924 3.148 1.526 0 2.634-.48 3.891-1.648l2.605 2.31c-1.497 1.86-3.651 3-6.558 3-4.821 0-8.385-3.389-8.385-8.31M123.29 58.06h4.552v3.239c.927-2.22 2.423-3.658 5.119-3.538v4.768h-.24c-3.022 0-4.879 1.83-4.879 5.666v5.94h-4.552V58.06Z"/>
    <path d="M131.969 58.06h4.821l3.593 10.765 3.622-10.765h4.73l-6.313 16.195h-4.135l-6.318-16.195ZM149.186 58.06h4.552v16.075h-4.552V58.06Zm-.12-5.82h4.792v4.047h-4.792V52.24ZM154.842 66.186v-.058c0-4.589 3.502-8.367 8.415-8.367 3.022 0 4.912 1.02 6.408 2.701l-2.786 2.999c-1.018-1.081-2.035-1.769-3.651-1.769-2.274 0-3.891 2.01-3.891 4.378v.063c0 2.46 1.588 4.436 4.073 4.436 1.525 0 2.576-.659 3.684-1.71l2.667 2.7c-1.559 1.71-3.354 2.94-6.558 2.94-4.821 0-8.352-3.719-8.352-8.308"/>
    <path d="M180.412 64.836c-.269-2.038-1.468-3.421-3.383-3.421-1.914 0-3.113 1.35-3.473 3.421h6.856Zm-11.317 1.35v-.058c0-4.589 3.262-8.367 7.934-8.367 5.359 0 7.815 4.167 7.815 8.728 0 .36-.029.779-.062 1.201h-11.168c.451 2.071 1.886 3.148 3.924 3.148 1.526 0 2.634-.48 3.891-1.648l2.605 2.31c-1.497 1.86-3.651 3-6.558 3-4.821 0-8.381-3.389-8.381-8.31M184.575 72.002l1.948-2.999c1.736 1.26 3.564 1.918 5.061 1.918 1.315 0 1.914-.48 1.914-1.201v-.058c0-.99-1.555-1.322-3.324-1.86-2.245-.659-4.792-1.71-4.792-4.83v-.058c0-3.268 2.633-5.099 5.867-5.099 2.034 0 4.25.692 5.987 1.86l-1.737 3.148c-1.587-.928-3.175-1.5-4.341-1.5-1.166 0-1.675.481-1.675 1.11v.059c0 .899 1.526 1.321 3.263 1.917 2.245.75 4.85 1.831 4.85 4.768v.058c0 3.57-2.667 5.19-6.136 5.19-2.245 0-4.759-.75-6.885-2.431M98.9 86.657v-.03c0-2.36-1.72-4.29-4.09-4.29s-4.06 1.9-4.06 4.258v.029c0 2.36 1.72 4.287 4.089 4.287 2.369 0 4.06-1.902 4.06-4.258m-9.36.004v-.03c0-2.866 2.145-5.372 5.304-5.372 3.159 0 5.272 2.477 5.272 5.344v.029c0 2.862-2.146 5.372-5.305 5.372-3.16 0-5.272-2.477-5.272-5.343ZM102.29 81.433h7.45v1.086h-6.28v3.707h5.615v1.069h-5.615v4.527h-1.17V81.433ZM115.178 90.306l.727-.862c1.084.982 2.117 1.47 3.556 1.47s2.312-.74 2.312-1.764v-.029c0-.965-.517-1.512-2.696-1.975-2.386-.518-3.482-1.293-3.482-3v-.028c0-1.632 1.439-2.834 3.407-2.834 1.51 0 2.593.431 3.643 1.276l-.682.903c-.964-.787-1.927-1.126-2.994-1.126-1.348 0-2.208.74-2.208 1.677v.03c0 .977.534 1.528 2.816 2.016 2.311.506 3.378 1.35 3.378 2.937v.029c0 1.781-1.48 2.937-3.539 2.937-1.646 0-2.994-.547-4.238-1.661M133.945 86.657v-.03c0-2.36-1.72-4.29-4.089-4.29-2.369 0-4.06 1.9-4.06 4.258v.029c0 2.36 1.72 4.287 4.089 4.287 2.369 0 4.06-1.902 4.06-4.258m-9.365.004v-.03c0-2.866 2.15-5.372 5.305-5.372s5.272 2.477 5.272 5.344v.029c0 2.862-2.15 5.372-5.305 5.372s-5.272-2.477-5.272-5.343ZM137.17 87.473v-6.04h1.171v5.965c0 2.241 1.186 3.504 3.171 3.504 1.985 0 3.126-1.155 3.126-3.43v-6.038h1.17v5.952c0 3.028-1.733 4.602-4.325 4.602-2.593 0-4.313-1.574-4.313-4.511M151.018 82.515h-3.482v-1.082h8.15v1.082h-3.482v9.307h-1.186v-9.307ZM157.58 81.433h1.17v4.615h5.987v-4.615h1.17v10.389h-1.17v-4.677h-5.987v4.677h-1.17V81.433ZM172.684 81.433h7.455v1.086h-6.285v3.707h5.615v1.069h-5.615v4.527h-1.17V81.433ZM182.107 81.433h1.17v9.304h5.838v1.085h-7.008V81.433ZM199.287 86.657v-.03c0-2.36-1.72-4.29-4.089-4.29-2.37 0-4.061 1.9-4.061 4.258v.029c0 2.36 1.72 4.287 4.089 4.287 2.37 0 4.061-1.902 4.061-4.258m-9.361.004v-.03c0-2.866 2.15-5.372 5.305-5.372 3.154 0 5.271 2.477 5.271 5.344v.029c0 2.862-2.15 5.372-5.304 5.372-3.155 0-5.272-2.477-5.272-5.343ZM207.031 86.731c1.555 0 2.667-.803 2.667-2.137v-.029c0-1.276-.976-2.046-2.65-2.046h-3.201v4.216h3.184v-.004Zm-4.354-5.297h4.462c1.273 0 2.294.385 2.948 1.04.504.504.802 1.23.802 2.05v.028c0 1.724-1.187 2.73-2.816 3.028l3.184 4.246h-1.439l-3.006-4.038h-2.965v4.038h-1.17V81.433ZM214.362 81.433h-1.17v10.389h1.17V81.433ZM220.701 90.737c2.621 0 4.296-1.781 4.296-4.08v-.03c0-2.298-1.675-4.108-4.296-4.108h-2.432v8.222h2.432v-.004Zm-3.598-9.303h3.602c3.258 0 5.511 2.24 5.511 5.165v.029c0 2.924-2.253 5.194-5.511 5.194h-3.602V81.433ZM234.436 88.024l-2.356-5.298-2.37 5.298h4.726Zm-2.89-6.665h1.096l4.726 10.463h-1.261l-1.216-2.746h-5.644l-1.228 2.746h-1.199l4.726-10.463ZM79.76 56.163c-3.594-2.105-7.059-3.31-9.51-3.31-1.948 0-3.155.717-3.155 1.872v.137c0 1.375 2.824 2.336 5.817 3.351l1.141.39c2.27.757 5.653 1.888 8.146 4.12v-9.621l-1.873 3.396-.567-.331v-.004Z"/>
    <path d="M16.043.211 20.62 7.85h11.288l-5.644 9.42 5.644 9.419H20.62l-5.756 9.605-5.755-9.605H0V81.88c.6.65 1.89 1.487 4.536 1.487 1.77 0 4.395-1.976 4.395-4.71v-34.49h11.594v36.45c0 5.558-1.919 9.253-5.706 11.05h67.38v-12.96c-2.498 2.477-6.343 3.848-11.272 3.848-5.652 0-11.27-1.963-15.852-5.53-3.085 3.074-7.112 5.667-14.178 5.667-10.97 0-19.566-8.55-19.566-19.464v-.137c0-11.17 8.468-19.6 19.698-19.6 6.467 0 11.094 1.955 14.993 6.33l.388.438-7.173 7.725-.472-.497c-2.154-2.282-4.308-3.806-7.806-3.806-4.582 0-8.175 4.075-8.175 9.274v.136c0 5.543 3.532 9.411 8.584 9.411 3.32 0 5.557-1.479 7.902-3.695l.454-.434 6.062 6.142 3.775-5.82.546.398c3.7 2.684 7.74 4.225 11.085 4.225 1.687 0 3.7-.36 3.7-2.075v-.137c0-1.5-2.637-2.282-5.693-3.18-.45-.133-.914-.27-1.38-.415-5.587-1.644-11.305-4.304-11.305-11.552v-.137c0-7.294 5.602-12.194 13.934-12.194 3.89 0 8.125 1.11 11.747 3.028V.21H16.043ZM13.686.211H0v7.634h9.109L13.686.211ZM0 11.482v11.565l3.465-5.783L0 11.482Z"/>
  </g>
  <defs>
    <clipPath id="a">
      <path fill="#fff" d="M0 0h244v92H0z"/>
    </clipPath>
  </defs>
</svg>
